<?xml version="1.0" encoding="UTF-8"?>
<svg version="1.1" xmlns="http://www.w3.org/2000/svg" width="64" height="64">
<path d="M0 0 C1.53718437 -0.01925285 1.53718437 -0.01925285 3.10542297 -0.03889465 C4.21685165 -0.04628159 5.32828033 -0.05366852 6.47338867 -0.0612793 C7.61289474 -0.06935104 8.75240082 -0.07742279 9.92643738 -0.08573914 C12.34156773 -0.09958792 14.75671772 -0.1103065 17.171875 -0.11816406 C20.86585567 -0.1353792 24.55894214 -0.17925999 28.25268555 -0.22338867 C30.59708 -0.2335151 32.94148206 -0.24203136 35.28588867 -0.2487793 C36.39124466 -0.26628738 37.49660065 -0.28379547 38.63545227 -0.30183411 C46.31575407 -0.28010887 46.31575407 -0.28010887 50.25341797 2.07861328 C52.99937913 5.23516486 53.2111978 6.99569885 53.25585938 11.09814453 C53.27511223 12.6353289 53.27511223 12.6353289 53.29475403 14.2035675 C53.30214096 15.31499619 53.30952789 16.42642487 53.31713867 17.5715332 C53.32521042 18.71103928 53.33328217 19.85054535 53.34159851 21.02458191 C53.35544729 23.43971226 53.36616588 25.85486225 53.37402344 28.27001953 C53.39123858 31.9640002 53.43511936 35.65708667 53.47924805 39.35083008 C53.48937448 41.69522453 53.49789074 44.0396266 53.50463867 46.3840332 C53.52214676 47.48938919 53.53965485 48.59474518 53.55769348 49.7335968 C53.53596824 57.4138986 53.53596824 57.4138986 51.17724609 61.3515625 C48.02069451 64.09752366 46.26016052 64.30934233 42.15771484 64.35400391 C40.62053047 64.37325676 40.62053047 64.37325676 39.05229187 64.39289856 C37.38514885 64.40397896 37.38514885 64.40397896 35.68432617 64.4152832 C34.5448201 64.42335495 33.40531403 64.4314267 32.23127747 64.43974304 C29.81614711 64.45359182 27.40099712 64.46431041 24.98583984 64.47216797 C21.29185918 64.48938311 17.59877271 64.53326389 13.9050293 64.57739258 C11.56063485 64.58751901 9.21623278 64.59603527 6.87182617 64.6027832 C5.21379219 64.62904533 5.21379219 64.62904533 3.52226257 64.65583801 C-4.15803923 64.63411277 -4.15803923 64.63411277 -8.09570312 62.27539062 C-10.84166429 59.11883904 -11.05348295 57.35830505 -11.09814453 53.25585938 C-11.11097977 52.23106979 -11.123815 51.20628021 -11.13703918 50.1504364 C-11.14442612 49.03900772 -11.15181305 47.92757904 -11.15942383 46.7824707 C-11.16749557 45.64296463 -11.17556732 44.50345856 -11.18388367 43.329422 C-11.19773245 40.91429164 -11.20845103 38.49914165 -11.21630859 36.08398438 C-11.23352373 32.39000371 -11.27740452 28.69691724 -11.3215332 25.00317383 C-11.33165964 22.65877938 -11.34017589 20.31437731 -11.34692383 17.9699707 C-11.37318596 16.31193672 -11.37318596 16.31193672 -11.39997864 14.6204071 C-11.3782534 6.9401053 -11.3782534 6.9401053 -9.01953125 3.00244141 C-5.86297967 0.25648024 -4.10244568 0.04466158 0 0 Z M15.17651367 15.9621582 C13.81960303 17.48054382 12.46543252 19.00138262 11.11401367 20.5246582 C9.07885742 22.17700195 9.07885742 22.17700195 6.96557617 21.98950195 C4.95806176 21.12498229 3.0057623 20.20927242 1.07885742 19.17700195 C0.63313227 23.062959 0.63313227 23.062959 2.61010742 24.88012695 C3.25979492 25.3905957 3.90948242 25.90106445 4.57885742 26.42700195 C5.22854492 26.9477832 5.87823242 27.46856445 6.54760742 28.00512695 C7.05291992 28.3918457 7.55823242 28.77856445 8.07885742 29.17700195 C10.76024721 26.86007292 13.42327257 24.52344429 16.07885742 22.17700195 C16.90385742 21.45512695 17.72885742 20.73325195 18.57885742 19.98950195 C20.50390256 18.05552095 20.50390256 18.05552095 20.07885742 14.17700195 C17.00866711 13.8348571 17.00866711 13.8348571 15.17651367 15.9621582 Z M25.07885742 22.17700195 C25.07885742 23.49700195 25.07885742 24.81700195 25.07885742 26.17700195 C30.35885742 26.17700195 35.63885742 26.17700195 41.07885742 26.17700195 C41.07885742 24.85700195 41.07885742 23.53700195 41.07885742 22.17700195 C35.79885742 22.17700195 30.51885742 22.17700195 25.07885742 22.17700195 Z M14.20385742 38.55200195 C11.87456718 40.64062752 9.69142222 42.43529209 7.07885742 44.17700195 C6.46010742 43.40356445 6.46010742 43.40356445 5.82885742 42.61450195 C5.25135742 42.14012695 4.67385742 41.66575195 4.07885742 41.17700195 C1.91586531 41.40457926 1.91586531 41.40457926 0.07885742 42.17700195 C2.51459615 46.65359479 2.51459615 46.65359479 6.07885742 50.17700195 C10.28216213 49.87012351 12.50941103 47.21308283 15.39135742 44.36450195 C16.29499023 43.49180664 17.19862305 42.61911133 18.12963867 41.7199707 C20.36282875 39.40025043 20.36282875 39.40025043 19.87182617 36.8527832 C19.47930664 36.02327148 19.47930664 36.02327148 19.07885742 35.17700195 C17.12271797 35.17700195 15.57377975 37.32258448 14.20385742 38.55200195 Z M25.07885742 43.17700195 C25.07885742 44.49700195 25.07885742 45.81700195 25.07885742 47.17700195 C27.78986512 48.5325058 29.99224911 48.34617402 33.01635742 48.36450195 C34.07725586 48.37868164 35.1381543 48.39286133 36.23120117 48.4074707 C39.28163411 48.39265262 39.28163411 48.39265262 42.07885742 46.17700195 C41.74885742 45.18700195 41.41885742 44.19700195 41.07885742 43.17700195 C35.79885742 43.17700195 30.51885742 43.17700195 25.07885742 43.17700195 Z " fill="#2096F3" transform="translate(10.921142578125,-0.177001953125)"/>
</svg>
